<svg width="717" height="666" viewBox="0 0 717 666" fill="none" xmlns="http://www.w3.org/2000/svg">
<g clip-path="url(#clip0_157_213)">
<rect width="717" height="981" rx="10" fill="url(#paint0_linear_157_213)"/>
<path d="M16 524.5C16 526.333 16.3 532.7 17.5 543.5L28.5 526L44.5 506.5L57.5 493.5L75.5 480L91 471L96 469.5L86 476.5L74 486.5L61 500.5L51.5 510.5L35.5 535.5L25.5 552.5L30.5 550L35.5 546.5L49.5 541L64 537L75.5 533.5L84 529.5L93 524.5L101 514.5L108 500.5L112.5 489L115 478L117.5 463.5L119 447.5L120.5 430L110.5 439L101 445L91 449.5L82 453L71.5 456L64 458L53.5 463.5L46 468L35.5 478L27 489C25.1667 493.333 21.2 502.6 20 505C18.8 507.4 16.8333 519 16 524.5Z" fill="#04C7A7" fill-opacity="0.4"/>
<path d="M68 282.5C68 284.333 68.3 290.7 69.5 301.5L80.5 284L96.5 264.5L109.5 251.5L127.5 238L143 229L148 227.5L138 234.5L126 244.5L113 258.5L103.5 268.5L87.5 293.5L77.5 310.5L82.5 308L87.5 304.5L101.5 299L116 295L127.5 291.5L136 287.5L145 282.5L153 272.5L160 258.5L164.5 247L167 236L169.5 221.5L171 205.5L172.5 188L162.5 197L153 203L143 207.5L134 211L123.5 214L116 216L105.5 221.5L98 226L87.5 236L79 247C77.1667 251.333 73.2 260.6 72 263C70.8 265.4 68.8333 277 68 282.5Z" fill="#04C7A7" fill-opacity="0.4"/>
<path d="M33 146.5C33 148.333 33.3 154.7 34.5 165.5L45.5 148L61.5 128.5L74.5 115.5L92.5 102L108 93L113 91.5L103 98.5L91 108.5L78 122.5L68.5 132.5L52.5 157.5L42.5 174.5L47.5 172L52.5 168.5L66.5 163L81 159L92.5 155.5L101 151.5L110 146.5L118 136.5L125 122.5L129.5 111L132 100L134.5 85.5L136 69.5L137.5 52L127.5 61L118 67L108 71.5L99 75L88.5 78L81 80L70.5 85.5L63 90L52.5 100L44 111C42.1667 115.333 38.2 124.6 37 127C35.8 129.4 33.8333 141 33 146.5Z" fill="#04C7A7" fill-opacity="0.4"/>
<path d="M240 241.5C240 243.333 240.3 249.7 241.5 260.5L252.5 243L268.5 223.5L281.5 210.5L299.5 197L315 188L320 186.5L310 193.5L298 203.5L285 217.5L275.5 227.5L259.5 252.5L249.5 269.5L254.5 267L259.5 263.5L273.5 258L288 254L299.5 250.5L308 246.5L317 241.5L325 231.5L332 217.5L336.5 206L339 195L341.5 180.5L343 164.5L344.5 147L334.5 156L325 162L315 166.5L306 170L295.5 173L288 175L277.5 180.5L270 185L259.5 195L251 206C249.167 210.333 245.2 219.6 244 222C242.8 224.4 240.833 236 240 241.5Z" fill="#04C7A7" fill-opacity="0.4"/>
<path d="M204 118.5C204 120.333 204.3 126.7 205.5 137.5L216.5 120L232.5 100.5L245.5 87.5L263.5 74L279 65L284 63.5L274 70.5L262 80.5L249 94.5L239.5 104.5L223.5 129.5L213.5 146.5L218.5 144L223.5 140.5L237.5 135L252 131L263.5 127.5L272 123.5L281 118.5L289 108.5L296 94.5L300.5 83L303 72L305.5 57.5L307 41.5L308.5 24L298.5 33L289 39L279 43.5L270 47L259.5 50L252 52L241.5 57.5L234 62L223.5 72L215 83C213.167 87.3333 209.2 96.6 208 99C206.8 101.4 204.833 113 204 118.5Z" fill="#04C7A7" fill-opacity="0.4"/>
<path d="M375 118.5C375 120.333 375.3 126.7 376.5 137.5L387.5 120L403.5 100.5L416.5 87.5L434.5 74L450 65L455 63.5L445 70.5L433 80.5L420 94.5L410.5 104.5L394.5 129.5L384.5 146.5L389.5 144L394.5 140.5L408.5 135L423 131L434.5 127.5L443 123.5L452 118.5L460 108.5L467 94.5L471.5 83L474 72L476.5 57.5L478 41.5L479.5 24L469.5 33L460 39L450 43.5L441 47L430.5 50L423 52L412.5 57.5L405 62L394.5 72L386 83C384.167 87.3333 380.2 96.6 379 99C377.8 101.4 375.833 113 375 118.5Z" fill="#04C7A7" fill-opacity="0.4"/>
<path d="M510 207.5C510 209.333 510.3 215.7 511.5 226.5L522.5 209L538.5 189.5L551.5 176.5L569.5 163L585 154L590 152.5L580 159.5L568 169.5L555 183.5L545.5 193.5L529.5 218.5L519.5 235.5L524.5 233L529.5 229.5L543.5 224L558 220L569.5 216.5L578 212.5L587 207.5L595 197.5L602 183.5L606.5 172L609 161L611.5 146.5L613 130.5L614.5 113L604.5 122L595 128L585 132.5L576 136L565.5 139L558 141L547.5 146.5L540 151L529.5 161L521 172C519.167 176.333 515.2 185.6 514 188C512.8 190.4 510.833 202 510 207.5Z" fill="#04C7A7" fill-opacity="0.4"/>
<path d="M519 100.5C519 102.333 519.3 108.7 520.5 119.5L531.5 102L547.5 82.5L560.5 69.5L578.5 56L594 47L599 45.5L589 52.5L577 62.5L564 76.5L554.5 86.5L538.5 111.5L528.5 128.5L533.5 126L538.5 122.5L552.5 117L567 113L578.5 109.5L587 105.5L596 100.5L604 90.5L611 76.5L615.5 65L618 54L620.5 39.5L622 23.5L623.5 6L613.5 15L604 21L594 25.5L585 29L574.5 32L567 34L556.5 39.5L549 44L538.5 54L530 65C528.167 69.3333 524.2 78.6 523 81C521.8 83.4 519.833 95 519 100.5Z" fill="#04C7A7" fill-opacity="0.4"/>
<path d="M591 286.5C591 288.333 591.3 294.7 592.5 305.5L603.5 288L619.5 268.5L632.5 255.5L650.5 242L666 233L671 231.5L661 238.5L649 248.5L636 262.5L626.5 272.5L610.5 297.5L600.5 314.5L605.5 312L610.5 308.5L624.5 303L639 299L650.5 295.5L659 291.5L668 286.5L676 276.5L683 262.5L687.5 251L690 240L692.5 225.5L694 209.5L695.5 192L685.5 201L676 207L666 211.5L657 215L646.5 218L639 220L628.5 225.5L621 230L610.5 240L602 251C600.167 255.333 596.2 264.6 595 267C593.8 269.4 591.833 281 591 286.5Z" fill="#04C7A7" fill-opacity="0.4"/>
<path d="M591 491.5C591 493.333 591.3 499.7 592.5 510.5L603.5 493L619.5 473.5L632.5 460.5L650.5 447L666 438L671 436.5L661 443.5L649 453.5L636 467.5L626.5 477.5L610.5 502.5L600.5 519.5L605.5 517L610.5 513.5L624.5 508L639 504L650.5 500.5L659 496.5L668 491.5L676 481.5L683 467.5L687.5 456L690 445L692.5 430.5L694 414.5L695.5 397L685.5 406L676 412L666 416.5L657 420L646.5 423L639 425L628.5 430.5L621 435L610.5 445L602 456C600.167 460.333 596.2 469.6 595 472C593.8 474.4 591.833 486 591 491.5Z" fill="#04C7A7" fill-opacity="0.4"/>
<path d="M644 118.5C644 120.333 644.3 126.7 645.5 137.5L656.5 120L672.5 100.5L685.5 87.5L703.5 74L719 65L724 63.5L714 70.5L702 80.5L689 94.5L679.5 104.5L663.5 129.5L653.5 146.5L658.5 144L663.5 140.5L677.5 135L692 131L703.5 127.5L712 123.5L721 118.5L729 108.5L736 94.5L740.5 83L743 72L745.5 57.5L747 41.5L748.5 24L738.5 33L729 39L719 43.5L710 47L699.5 50L692 52L681.5 57.5L674 62L663.5 72L655 83C653.167 87.3333 649.2 96.6 648 99C646.8 101.4 644.833 113 644 118.5Z" fill="#04C7A7" fill-opacity="0.4"/>
<path d="M-13 416.5C-13 418.333 -12.7 424.7 -11.5 435.5L-0.5 418L15.5 398.5L28.5 385.5L46.5 372L62 363L67 361.5L57 368.5L45 378.5L32 392.5L22.5 402.5L6.5 427.5L-3.5 444.5L1.5 442L6.5 438.5L20.5 433L35 429L46.5 425.5L55 421.5L64 416.5L72 406.5L79 392.5L83.5 381L86 370L88.5 355.5L90 339.5L91.5 322L81.5 331L72 337L62 341.5L53 345L42.5 348L35 350L24.5 355.5L17 360L6.5 370L-2 381C-3.83333 385.333 -7.8 394.6 -9 397C-10.2 399.4 -12.1667 411 -13 416.5Z" fill="#04C7A7" fill-opacity="0.4"/>
<path d="M631 634.5C631 636.333 631.3 642.7 632.5 653.5L643.5 636L659.5 616.5L672.5 603.5L690.5 590L706 581L711 579.5L701 586.5L689 596.5L676 610.5L666.5 620.5L650.5 645.5L640.5 662.5L645.5 660L650.5 656.5L664.5 651L679 647L690.5 643.5L699 639.5L708 634.5L716 624.5L723 610.5L727.5 599L730 588L732.5 573.5L734 557.5L735.5 540L725.5 549L716 555L706 559.5L697 563L686.5 566L679 568L668.5 573.5L661 578L650.5 588L642 599C640.167 603.333 636.2 612.6 635 615C633.8 617.4 631.833 629 631 634.5Z" fill="#04C7A7" fill-opacity="0.4"/>
<path d="M510 434.5C510 436.333 510.3 442.7 511.5 453.5L522.5 436L538.5 416.5L551.5 403.5L569.5 390L585 381L590 379.5L580 386.5L568 396.5L555 410.5L545.5 420.5L529.5 445.5L519.5 462.5L524.5 460L529.5 456.5L543.5 451L558 447L569.5 443.5L578 439.5L587 434.5L595 424.5L602 410.5L606.5 399L609 388L611.5 373.5L613 357.5L614.5 340L604.5 349L595 355L585 359.5L576 363L565.5 366L558 368L547.5 373.5L540 378L529.5 388L521 399C519.167 403.333 515.2 412.6 514 415C512.8 417.4 510.833 429 510 434.5Z" fill="#04C7A7" fill-opacity="0.4"/>
<path d="M510 633.5C510 635.333 510.3 641.7 511.5 652.5L522.5 635L538.5 615.5L551.5 602.5L569.5 589L585 580L590 578.5L580 585.5L568 595.5L555 609.5L545.5 619.5L529.5 644.5L519.5 661.5L524.5 659L529.5 655.5L543.5 650L558 646L569.5 642.5L578 638.5L587 633.5L595 623.5L602 609.5L606.5 598L609 587L611.5 572.5L613 556.5L614.5 539L604.5 548L595 554L585 558.5L576 562L565.5 565L558 567L547.5 572.5L540 577L529.5 587L521 598C519.167 602.333 515.2 611.6 514 614C512.8 616.4 510.833 628 510 633.5Z" fill="#04C7A7" fill-opacity="0.4"/>
<path d="M204 463.5C204 465.333 204.3 471.7 205.5 482.5L216.5 465L232.5 445.5L245.5 432.5L263.5 419L279 410L284 408.5L274 415.5L262 425.5L249 439.5L239.5 449.5L223.5 474.5L213.5 491.5L218.5 489L223.5 485.5L237.5 480L252 476L263.5 472.5L272 468.5L281 463.5L289 453.5L296 439.5L300.5 428L303 417L305.5 402.5L307 386.5L308.5 369L298.5 378L289 384L279 388.5L270 392L259.5 395L252 397L241.5 402.5L234 407L223.5 417L215 428C213.167 432.333 209.2 441.6 208 444C206.8 446.4 204.833 458 204 463.5Z" fill="#04C7A7" fill-opacity="0.4"/>
<path d="M344 503.5C344 505.333 344.3 511.7 345.5 522.5L356.5 505L372.5 485.5L385.5 472.5L403.5 459L419 450L424 448.5L414 455.5L402 465.5L389 479.5L379.5 489.5L363.5 514.5L353.5 531.5L358.5 529L363.5 525.5L377.5 520L392 516L403.5 512.5L412 508.5L421 503.5L429 493.5L436 479.5L440.5 468L443 457L445.5 442.5L447 426.5L448.5 409L438.5 418L429 424L419 428.5L410 432L399.5 435L392 437L381.5 442.5L374 447L363.5 457L355 468C353.167 472.333 349.2 481.6 348 484C346.8 486.4 344.833 498 344 503.5Z" fill="#04C7A7" fill-opacity="0.4"/>
<path d="M362 311.5C362 313.333 362.3 319.7 363.5 330.5L374.5 313L390.5 293.5L403.5 280.5L421.5 267L437 258L442 256.5L432 263.5L420 273.5L407 287.5L397.5 297.5L381.5 322.5L371.5 339.5L376.5 337L381.5 333.5L395.5 328L410 324L421.5 320.5L430 316.5L439 311.5L447 301.5L454 287.5L458.5 276L461 265L463.5 250.5L465 234.5L466.5 217L456.5 226L447 232L437 236.5L428 240L417.5 243L410 245L399.5 250.5L392 255L381.5 265L373 276C371.167 280.333 367.2 289.6 366 292C364.8 294.4 362.833 306 362 311.5Z" fill="#04C7A7" fill-opacity="0.4"/>
<path d="M16 685.5C16 687.333 16.3 693.7 17.5 704.5L28.5 687L44.5 667.5L57.5 654.5L75.5 641L91 632L96 630.5L86 637.5L74 647.5L61 661.5L51.5 671.5L35.5 696.5L25.5 713.5L30.5 711L35.5 707.5L49.5 702L64 698L75.5 694.5L84 690.5L93 685.5L101 675.5L108 661.5L112.5 650L115 639L117.5 624.5L119 608.5L120.5 591L110.5 600L101 606L91 610.5L82 614L71.5 617L64 619L53.5 624.5L46 629L35.5 639L27 650C25.1667 654.333 21.2 663.6 20 666C18.8 668.4 16.8333 680 16 685.5Z" fill="#04C7A7" fill-opacity="0.4"/>
<path d="M344 695.5C344 697.333 344.3 703.7 345.5 714.5L356.5 697L372.5 677.5L385.5 664.5L403.5 651L419 642L424 640.5L414 647.5L402 657.5L389 671.5L379.5 681.5L363.5 706.5L353.5 723.5L358.5 721L363.5 717.5L377.5 712L392 708L403.5 704.5L412 700.5L421 695.5L429 685.5L436 671.5L440.5 660L443 649L445.5 634.5L447 618.5L448.5 601L438.5 610L429 616L419 620.5L410 624L399.5 627L392 629L381.5 634.5L374 639L363.5 649L355 660C353.167 664.333 349.2 673.6 348 676C346.8 678.4 344.833 690 344 695.5Z" fill="#04C7A7" fill-opacity="0.4"/>
<path d="M180 660.5C180 662.333 180.3 668.7 181.5 679.5L192.5 662L208.5 642.5L221.5 629.5L239.5 616L255 607L260 605.5L250 612.5L238 622.5L225 636.5L215.5 646.5L199.5 671.5L189.5 688.5L194.5 686L199.5 682.5L213.5 677L228 673L239.5 669.5L248 665.5L257 660.5L265 650.5L272 636.5L276.5 625L279 614L281.5 599.5L283 583.5L284.5 566L274.5 575L265 581L255 585.5L246 589L235.5 592L228 594L217.5 599.5L210 604L199.5 614L191 625C189.167 629.333 185.2 638.6 184 641C182.8 643.4 180.833 655 180 660.5Z" fill="#04C7A7" fill-opacity="0.4"/>
</g>
<defs>
<linearGradient id="paint0_linear_157_213" x1="358.5" y1="0" x2="358.5" y2="981" gradientUnits="userSpaceOnUse">
<stop stop-color="#31D3AC"/>
<stop offset="1" stop-color="#26D2DE"/>
</linearGradient>
<clipPath id="clip0_157_213">
<rect width="717" height="666" fill="white"/>
</clipPath>
</defs>
</svg>
